<?xml version="1.0" encoding="utf-8"?>
<!-- Generator: Adobe Illustrator 21.0.0, SVG Export Plug-In . SVG Version: 6.00 Build 0)  -->
<svg version="1.1" id="Layer_1" xmlns="http://www.w3.org/2000/svg" xmlns:xlink="http://www.w3.org/1999/xlink" x="0px" y="0px"
	 viewBox="0 0 79 17" style="enable-background:new 0 0 79 17;" xml:space="preserve">
<style type="text/css">
	.st0{fill:#E8642F;}
	.st1{fill:#0B1A33;}
</style>
<path class="st0" d="M20,11.9c0,0.5,0,1.1,0,1.6c-0.1,1.6-1.6,3.1-3.2,3.4c-0.4,0.1-0.5,0-0.5-0.4c0-0.6-0.3-1.2,0.7-1.5
	c0.2-0.1,0.5-0.3,0.7-0.6c0.1-0.2,0.3-0.6,0.2-0.9c-0.2-0.3-0.6-0.2-0.9-0.2c-0.6,0.1-0.7-0.1-0.7-0.7c0-0.8,0-1.4,0-2.2
	c0-0.5,0.2-0.6,0.6-0.6c0.8,0,1.7,0,2.5,0c0.5,0,0.6,0.2,0.6,0.6C20,10.9,20,11.4,20,11.9C20,11.9,20,11.9,20,11.9 M23.3,4.3V0.6
	l12.9,7.4v1.4l-12.9,7.4v-3.6l8.2-4.5L23.3,4.3z M4.7,8.7l8.2,4.5v3.6L0,9.4V8.1l12.9-7.4v3.6L4.7,8.7z M19.6,3.9h-3
	c-0.2,0-0.4-0.2-0.4-0.3V0.7c0-0.2,0.2-0.3,0.4-0.3h3c0.2,0,0.4,0.2,0.4,0.3v2.9C20,3.7,19.8,3.9,19.6,3.9"/>
<path class="st1" d="M55.7,10.8c0-1.1,0-2.2,0-3.2c0-0.3-0.1-0.4-0.4-0.4c-0.6,0-1.2,0-1.8,0c-0.2,0-0.3,0.1-0.3,0.3
	c0,2.2,0,4.3,0,6.5c0,0.2,0.1,0.3,0.3,0.3c0.6,0,1.2,0,1.8,0c0.3,0,0.4-0.1,0.4-0.4C55.7,12.9,55.7,11.8,55.7,10.8 M53.5,6.2h1.9
	c0.2,0,0.3-0.1,0.3-0.3V4.6c0-0.2-0.1-0.3-0.3-0.3h-1.9c-0.2,0-0.3,0.1-0.3,0.3v1.3C53.2,6.1,53.3,6.2,53.5,6.2 M51.9,4.6
	c0-0.2-0.1-0.3-0.3-0.3h-2.1c-0.1,0-0.3,0.1-0.3,0.2l0,0.1c0,0,0,0,0,0c-0.5,1.8-1.1,3.6-1.6,5.5c0,0.1-0.1,0.2-0.1,0.4
	c-0.2-0.7-0.4-1.3-0.6-2c-0.3-1.1-0.7-2.2-1-3.3c0,0,0-0.1,0-0.1l-0.2-0.6c0-0.1-0.2-0.2-0.3-0.2h-2.2c-0.2,0-0.4,0.2-0.3,0.4
	L43,5.2c0,0,0,0,0,0c1,2.9,2,5.9,3,8.8c0.1,0.2,0.2,0.3,0.4,0.3c0.6,0,1.3,0,1.9,0c0.2,0,0.4-0.1,0.4-0.3c1-2.9,1.9-5.7,2.9-8.6l0,0
	L51.9,4.6C51.9,4.7,51.9,4.7,51.9,4.6L51.9,4.6C51.9,4.6,51.9,4.6,51.9,4.6 M69.9,12.3L69.9,12.3c-0.1,0-0.2,0-0.2,0
	c-0.5-0.1-0.6-0.2-0.6-0.9c0-1.8,0-3.6,0-5.5c0,0,0,0,0-0.1V4.6c0-0.2-0.1-0.3-0.3-0.3h-1.9c-0.2,0-0.3,0.1-0.3,0.3v1.3c0,0,0,0,0,0
	c0,0.9,0,1.9,0,2.8c0,1.2,0,2.3,0,3.5c0,1.3,0.6,1.9,1.9,2.1c0.2,0,0.4,0,0.6,0l0,0h0.8c0.2,0,0.3-0.1,0.3-0.3v-1.5
	C70.2,12.4,70.1,12.3,69.9,12.3 M62.2,11.5c0,0.5-0.4,1-1,1c-0.5,0-1-0.4-1-1V10c0-0.5,0.4-1,1-1c0.5,0,1,0.4,1,1V11.5z M64.4,8.6
	c-0.3-0.9-1-1.5-2-1.6c-0.8-0.1-1.6,0.1-2.2,0.8c0-0.2,0-0.3,0-0.4c0-0.9,0-1.8,0-2.6c0,0,0,0,0,0l0-0.1c0-0.2-0.1-0.3-0.3-0.3h-1.9
	c-0.2,0-0.3,0.1-0.3,0.3v1.3c0,0,0,0,0,0.1c0,2.2,0,4.4,0,6.6c0,0,0,0,0,0V14c0,0,0,0,0,0c0,0,0,0,0,0c0,0.1,0.1,0.2,0.2,0.3
	c0,0,0,0,0,0h0c0,0,0,0,0.1,0h1.9c0,0,0,0,0,0c0.1,0,0.2,0,0.2,0c0-0.2,0-0.4,0.1-0.6c1,1.2,3.7,1.1,4.3-0.9
	C64.9,11.4,64.9,10,64.4,8.6L64.4,8.6z M76.2,11.5c0,0.5-0.4,1-1,1c-0.5,0-1-0.4-1-1V10c0-0.5,0.4-1,1-1c0.5,0,1,0.4,1,1V11.5z
	 M78.7,10.2c-0.1-1.3-0.5-2.3-1.8-2.9c-1.1-0.5-2.3-0.5-3.4,0c-0.9,0.3-1.5,1-1.7,1.9c-0.3,1-0.3,2.1,0,3.1c0.2,0.8,0.7,1.4,1.5,1.7
	c1.1,0.5,2.2,0.5,3.3,0.2c0.9-0.3,1.5-0.8,1.8-1.6c0.2-0.6,0.3-1.1,0.3-1.8C78.7,10.6,78.8,10.4,78.7,10.2L78.7,10.2z"/>
</svg>
